<!DOCTYPE svg PUBLIC "-//W3C//DTD SVG 1.1//EN" "http://www.w3.org/Graphics/SVG/1.1/DTD/svg11.dtd">
<!-- Uploaded to: SVG Repo, www.svgrepo.com, Transformed by: SVG Repo Mixer Tools -->
<svg width="201px" height="201px" viewBox="0 0 1024.00 1024.00" xmlns="http://www.w3.org/2000/svg" fill="#000000" stroke="#000000" stroke-width="0.01024">
<g id="SVGRepo_bgCarrier" stroke-width="0" transform="translate(0,0), scale(1)">
<rect x="0" y="0" width="1024.00" height="1024.00" rx="204.8" fill="#68bc71" strokewidth="0"/>
</g>
<g id="SVGRepo_tracerCarrier" stroke-linecap="round" stroke-linejoin="round" stroke="#CCCCCC" stroke-width="4.096"/>
<g id="SVGRepo_iconCarrier"> <circle cx="512" cy="512" r="512" style="fill:#68bc71"/> <path d="M512 285c-78.1 0-172.2 18.4-249.7 58.8 0 87.3-1.1 304.7 249.7 453.2 250.8-148.5 249.8-366 249.8-453.2C684.2 303.4 590.1 285 512 285zm-9.1 341.6L393.6 498.3c7.2-5.3 38-25.2 60.6.9l47.4 57.1 125.9-131h.2c5.3-4.9 15-11.1 26.1-2.2L502.9 626.6z" style="fill:#fff"/> </g>
</svg>