<svg xmlns="http://www.w3.org/2000/svg" viewBox="0 0 64 64" fill="none">
  <rect x="8" y="4" width="48" height="56" rx="6" fill="#2D3748"/>
  <rect x="12" y="8" width="40" height="12" rx="2" fill="#1A202C"/>
  <text x="32" y="16" text-anchor="middle" fill="#68D391" font-family="monospace" font-size="10">0</text>
  <rect x="12" y="24" width="8" height="6" rx="1" fill="#4A5568"/>
  <rect x="22" y="24" width="8" height="6" rx="1" fill="#4A5568"/>
  <rect x="32" y="24" width="8" height="6" rx="1" fill="#4A5568"/>
  <rect x="42" y="24" width="8" height="6" rx="1" fill="#ED8936"/>
  <rect x="12" y="32" width="8" height="6" rx="1" fill="#4A5568"/>
  <rect x="22" y="32" width="8" height="6" rx="1" fill="#4A5568"/>
  <rect x="32" y="32" width="8" height="6" rx="1" fill="#4A5568"/>
  <rect x="42" y="32" width="8" height="6" rx="1" fill="#ED8936"/>
  <rect x="12" y="40" width="8" height="6" rx="1" fill="#4A5568"/>
  <rect x="22" y="40" width="8" height="6" rx="1" fill="#4A5568"/>
  <rect x="32" y="40" width="8" height="6" rx="1" fill="#4A5568"/>
  <rect x="42" y="40" width="8" height="6" rx="1" fill="#ED8936"/>
  <rect x="12" y="48" width="18" height="6" rx="1" fill="#4A5568"/>
  <rect x="32" y="48" width="8" height="6" rx="1" fill="#4A5568"/>
  <rect x="42" y="48" width="8" height="6" rx="1" fill="#48BB78"/>
</svg>