<svg xmlns="http://www.w3.org/2000/svg" viewBox="0 0 48 48" width="48" height="48">
  <linearGradient id="rL2wppHyxHVbobwndsT6Ca" x1="4" x2="44" y1="23.508" y2="23.508" gradientUnits="userSpaceOnUse">
    <stop offset="0" stop-color="#4c4c4c"/>
    <stop offset="1" stop-color="#343434"/>
  </linearGradient>
  <path fill="url(#rL2wppHyxHVbobwndsT6Ca)" d="M24,4C12.954,4,4,12.954,4,24c0,8.887,5.801,16.411,13.82,19.016h12.36C38.199,40.411,44,32.887,44,24C44,12.954,35.046,4,24,4z"/>
  <path d="M30.01,41.996L30,36.198c0-0.939-0.22-1.856-0.642-2.687c5.641-1.133,8.386-4.468,8.386-10.177c0-2.255-0.665-4.246-1.976-5.92c0.1-0.317,0.174-0.645,0.22-0.981c0.188-1.369-0.023-2.264-0.193-2.984l-0.027-0.116c-0.186-0.796-0.409-1.364-0.418-1.388l-0.111-0.282l-0.111-0.282l-0.302-0.032l-0.303-0.032c0,0-0.199-0.021-0.501-0.021c-0.419,0-1.04,0.042-1.627,0.241l-0.196,0.066c-0.74,0.249-1.439,0.485-2.417,1.069c-0.286,0.171-0.599,0.366-0.934,0.584C27.334,12.881,25.705,12.69,24,12.69c-1.722,0-3.365,0.192-4.889,0.571c-0.339-0.22-0.654-0.417-0.942-0.589c-0.978-0.584-1.677-0.819-2.417-1.069l-0.196-0.066c-0.585-0.199-1.207-0.241-1.626-0.241c-0.302,0-0.501,0.021-0.501,0.021l-0.302,0.032l-0.3,0.031l-0.112,0.281l-0.113,0.283c-0.01,0.026-0.233,0.594-0.419,1.391l-0.027,0.115c-0.17,0.719-0.381,1.615-0.193,2.983c0.048,0.346,0.125,0.685,0.23,1.011c-1.285,1.666-1.936,3.646-1.936,5.89c0,5.695,2.748,9.028,8.397,10.17c-0.194,0.388-0.345,0.798-0.452,1.224c-0.197,0.067-0.378,0.112-0.538,0.137c-0.238,0.036-0.487,0.054-0.739,0.054c-0.686,0-1.225-0.134-1.435-0.259c-0.313-0.186-0.872-0.727-1.414-1.518c-0.463-0.675-1.185-1.558-1.992-1.927c-0.698-0.319-1.437-0.502-2.029-0.502c-0.138,0-0.265,0.01-0.376,0.028c-0.517,0.082-0.949,0.366-1.184,0.78c-0.203,0.357-0.235,0.773-0.088,1.141c0.219,0.548,0.851,0.985,1.343,1.255c0.242,0.133,0.765,0.619,1.07,1.109c0.229,0.368,0.335,0.63,0.482,0.992c0.308,0.760,0.749,1.747,1.504,2.372c0.981,0.813,2.402,0.638,3.687,0.066c0.445-0.198,0.849-0.445,1.191-0.735c0.097,0.459,0.319,2.619,0.319,3.876v5.827c-8.777-2.665-15.013-10.515-15.013-19.848C5.5,13.777,13.777,5.5,24,5.5c10.223,0,18.5,8.277,18.5,18.5c0,9.333-6.236,17.183-15.013,19.848L30.01,41.996z" opacity=".05"/>
  <path d="M30.781,42.797c-0.406,0.047-1.281-0.109-1.281-0.109v-5.668c0-1.668-0.318-2.718-0.645-3.269c3.477-0.332,6.11-1.23,6.11-5.681c0-1.404-0.561-2.895-1.234-3.659c0.061-0.11,0.128-0.226,0.198-0.348c0.24-0.416,0.581-1.016,0.644-1.816c0.113-1.439-0.4-2.2-0.4-2.2l-0.282-0.032c0,0-0.199-0.021-0.501-0.021c-0.419,0-1.04,0.042-1.627,0.241c-0.74,0.249-1.439,0.485-2.417,1.069c-0.286,0.171-0.599,0.366-0.934,0.584C27.334,12.881,25.705,12.69,24,12.69c-1.722,0-3.365,0.192-4.889,0.571c-0.339-0.22-0.654-0.417-0.942-0.589c-0.978-0.584-1.677-0.819-2.417-1.069c-0.585-0.199-1.207-0.241-1.626-0.241c-0.302,0-0.501,0.021-0.501,0.021l-0.282,0.032c0,0-0.513,0.761-0.4,2.2c0.063,0.8,0.404,1.4,0.644,1.816c0.07,0.122,0.137,0.238,0.198,0.348c-0.673,0.764-1.234,2.255-1.234,3.659c0,4.451,2.633,5.349,6.11,5.681c-0.327,0.551-0.645,1.601-0.645,3.269v5.668c0,0-0.875,0.156-1.281,0.109c-8.777-2.665-15.013-10.515-15.013-19.848c0-11.46,9.282-20.742,20.742-20.742s20.742,9.282,20.742,20.742C45.794,32.282,39.558,40.132,30.781,42.797z" opacity=".07"/>
  <path fill="#fff" d="M36.744,23.334c0-2.31-0.782-4.226-2.117-5.728c0.145-0.325,0.296-0.761,0.371-1.309c0.172-1.25-0.031-2-0.203-2.734s-0.375-1.25-0.375-1.25s-0.922-0.094-1.703,0.172s-1.453,0.469-2.422,1.047c-0.453,0.27-0.909,0.566-1.27,0.806C27.482,13.91,25.785,13.69,24,13.69c-1.801,0-3.513,0.221-5.067,0.652c-0.362-0.241-0.821-0.539-1.277-0.811c-0.969-0.578-1.641-0.781-2.422-1.047s-1.703-0.172-1.703-0.172s-0.203,0.516-0.375,1.25s-0.375,1.484-0.203,2.734c0.077,0.562,0.233,1.006,0.382,1.333c-1.31,1.493-2.078,3.397-2.078,5.704c0,5.983,3.232,8.714,9.121,9.435c-0.687,0.726-1.148,1.656-1.148,2.651c0,0.785,0.681,2.916,0.681,2.916h0.031c-0.294,0.108-0.586,0.177-0.872,0.177c-0.787,0-1.196-0.248-1.552-0.595c-0.33-0.323-0.778-0.885-1.2-1.414c-0.422-0.529-0.99-1.414-2.11-1.414c-0.94,0-0.687,0.422-0.687,0.422s0.2,0.922,0.4,1.344c0.2,0.422,0.6,1.344,1.15,1.844c0.55,0.5,1.331,0.719,2.35,0.719c0.422,0,0.719-0.062,0.969-0.156v2.8c0,0.672,0.047,1.328,0.047,2.047h0.172c0.094-0.672,0.172-1.425,0.172-2.047v-3.734c0-0.016,0-0.047,0-0.063c0.016-1.172,0.453-2.259,1.172-3.063c0.219-0.25,0.5-0.516,0.797-0.734c4.906-0.187,8.844-2.344,8.844-8.187c0,0,0,0,0,0c0-0.969-0.953-1.406-0.953-1.406s0.953,0.437,0.953,1.406C36.744,23.334,36.744,23.334,36.744,23.334z"/>
</svg>