<svg xmlns="http://www.w3.org/2000/svg" viewBox="0 0 64 64" fill="none">
  <circle cx="32" cy="32" r="30" fill="#E6522C"/>
  <circle cx="32" cy="32" r="24" fill="white"/>
  
  <!-- Prometheus flame -->
  <path d="M32 12 Q28 16 28 22 Q28 26 32 28 Q36 26 36 22 Q36 16 32 12 Z" fill="#E6522C"/>
  <path d="M32 28 Q26 32 26 38 Q26 44 32 48 Q38 44 38 38 Q38 32 32 28 Z" fill="#E6522C"/>
  
  <!-- Inner flame details -->
  <path d="M32 16 Q30 18 30 20 Q30 22 32 24 Q34 22 34 20 Q34 18 32 16 Z" fill="white"/>
  <path d="M32 32 Q28 34 28 38 Q28 42 32 44 Q36 42 36 38 Q36 34 32 32 Z" fill="white"/>
</svg>