<svg xmlns="http://www.w3.org/2000/svg" viewBox="0 0 64 64" fill="none">
  <rect width="64" height="64" rx="8" fill="#FF8C00"/>
  <rect x="8" y="8" width="48" height="48" rx="6" fill="white"/>
  
  <!-- Synology NAS representation -->
  <rect x="16" y="16" width="32" height="32" rx="2" fill="#FF8C00"/>
  
  <!-- Drive bays -->
  <rect x="20" y="20" width="6" height="6" rx="1" fill="white"/>
  <rect x="28" y="20" width="6" height="6" rx="1" fill="white"/>
  <rect x="36" y="20" width="6" height="6" rx="1" fill="white"/>
  
  <rect x="20" y="28" width="6" height="6" rx="1" fill="white"/>
  <rect x="28" y="28" width="6" height="6" rx="1" fill="white"/>
  <rect x="36" y="28" width="6" height="6" rx="1" fill="white"/>
  
  <!-- Status LEDs -->
  <circle cx="22" cy="38" r="1" fill="#00FF00"/>
  <circle cx="26" cy="38" r="1" fill="#00FF00"/>
  <circle cx="30" cy="38" r="1" fill="#00FF00"/>
  <circle cx="34" cy="38" r="1" fill="#00FF00"/>
  <circle cx="38" cy="38" r="1" fill="#00FF00"/>
  <circle cx="42" cy="38" r="1" fill="#00FF00"/>
  
  <!-- Power button -->
  <circle cx="32" cy="42" r="2" fill="white"/>
  <circle cx="32" cy="42" r="1" fill="#FF8C00"/>
</svg>