<svg xmlns="http://www.w3.org/2000/svg" viewBox="0 0 64 64" fill="none">
  <rect width="64" height="64" rx="8" fill="#0095D5"/>
  <rect x="8" y="8" width="48" height="48" rx="4" fill="white"/>
  <rect x="12" y="12" width="40" height="40" rx="2" fill="#0095D5"/>
  
  <!-- TrueNAS Logo Elements -->
  <rect x="16" y="16" width="32" height="4" fill="white"/>
  <rect x="16" y="24" width="32" height="4" fill="white"/>
  <rect x="16" y="32" width="32" height="4" fill="white"/>
  <rect x="16" y="40" width="32" height="4" fill="white"/>
  
  <!-- Storage representation -->
  <circle cx="20" cy="18" r="1.5" fill="#0095D5"/>
  <circle cx="28" cy="18" r="1.5" fill="#0095D5"/>
  <circle cx="36" cy="18" r="1.5" fill="#0095D5"/>
  <circle cx="44" cy="18" r="1.5" fill="#0095D5"/>
  
  <circle cx="20" cy="26" r="1.5" fill="#0095D5"/>
  <circle cx="28" cy="26" r="1.5" fill="#0095D5"/>
  <circle cx="36" cy="26" r="1.5" fill="#0095D5"/>
  <circle cx="44" cy="26" r="1.5" fill="#0095D5"/>
  
  <circle cx="20" cy="34" r="1.5" fill="#0095D5"/>
  <circle cx="28" cy="34" r="1.5" fill="#0095D5"/>
  <circle cx="36" cy="34" r="1.5" fill="#0095D5"/>
  <circle cx="44" cy="34" r="1.5" fill="#0095D5"/>
  
  <circle cx="20" cy="42" r="1.5" fill="#0095D5"/>
  <circle cx="28" cy="42" r="1.5" fill="#0095D5"/>
  <circle cx="36" cy="42" r="1.5" fill="#0095D5"/>
  <circle cx="44" cy="42" r="1.5" fill="#0095D5"/>
</svg>